<?xml version="1.0" standalone="no"?>
<!DOCTYPE svg PUBLIC "-//W3C//DTD SVG 20010904//EN"
 "http://www.w3.org/TR/2001/REC-SVG-20010904/DTD/svg10.dtd">
<svg version="1.0" xmlns="http://www.w3.org/2000/svg"
 width="118.000000pt" height="118.000000pt" viewBox="0 0 118.000000 118.000000"
 preserveAspectRatio="xMidYMid meet">
<metadata>
Created by potrace 1.11, written by Peter Selinger 2001-2013
</metadata>
<g transform="translate(0.000000,118.000000) scale(0.100000,-0.100000)"
fill="#000000" stroke="none">
<path d="M420 1158 c-102 -39 -174 -102 -218 -191 -32 -65 -42 -114 -38 -197
2 -61 9 -90 33 -141 38 -79 78 -121 174 -186 79 -54 88 -66 110 -151 15 -60
34 -76 76 -63 15 5 90 26 165 46 156 43 158 44 134 126 -23 76 -20 93 24 184
22 45 44 102 49 128 34 186 -54 354 -229 435 -76 36 -201 40 -280 10z m288
-102 c98 -63 146 -150 146 -266 0 -70 -3 -82 -51 -178 -28 -57 -50 -113 -48
-125 2 -12 6 -43 10 -68 l7 -47 -58 -17 c-33 -9 -76 -21 -96 -27 -46 -14 -64
-7 -72 29 -16 63 -39 92 -104 135 -148 95 -194 163 -198 288 -3 95 21 163 80
224 53 54 90 74 170 90 73 15 153 1 214 -38z"/>
<path d="M715 922 c-23 -12 -65 -16 -185 -17 -158 -1 -199 -7 -201 -28 -5
-100 -4 -157 3 -157 9 0 11 15 10 90 0 55 0 55 8 15 5 -22 9 -58 8 -80 -1 -46
16 -95 33 -95 6 0 8 7 5 15 -3 8 -9 22 -12 30 -8 19 25 33 36 15 6 -9 9 -9 15
0 6 9 9 9 15 0 6 -9 10 -7 14 7 6 18 15 21 75 20 l69 0 7 -44 c4 -28 11 -43
21 -43 11 0 12 5 6 18 -12 23 -6 57 17 90 10 15 26 40 35 55 15 24 21 27 56
23 46 -6 49 3 18 47 -13 18 -22 38 -20 44 2 7 2 13 0 12 -2 -1 -16 -8 -33 -17z"/>
<path d="M686 227 c-155 -44 -182 -60 -160 -94 15 -23 50 -20 168 13 50 14
114 32 143 40 55 15 75 42 53 69 -18 21 -38 19 -204 -28z"/>
<path d="M721 117 c-160 -44 -187 -60 -165 -94 6 -10 20 -19 30 -21 35 -4 326
82 338 101 14 21 -3 51 -30 54 -10 1 -88 -17 -173 -40z"/>
</g>
</svg>
